<svg width="32" height="32" viewBox="0 0 32 32" fill="none" xmlns="http://www.w3.org/2000/svg">
<path d="M8.4 24.3C7.49333 24.3 6.63 24.14 5.81 23.82C4.99 23.4933 4.26333 23.0133 3.63 22.38C3.00333 21.7467 2.50667 20.9633 2.14 20.03C1.78 19.0967 1.6 18.02 1.6 16.8C1.6 15.2067 1.90333 13.8533 2.51 12.74C3.12333 11.62 3.94333 10.7667 4.97 10.18C6.00333 9.59333 7.14667 9.3 8.4 9.3C10.2533 9.3 11.71 9.73 12.77 10.59C13.83 11.45 14.54 12.6667 14.9 14.24L12.12 14.64C11.86 13.8 11.4333 13.13 10.84 12.63C10.2533 12.1233 9.5 11.8667 8.58 11.86C7.66667 11.8467 6.90667 12.0433 6.3 12.45C5.69333 12.8567 5.23667 13.4333 4.93 14.18C4.63 14.9267 4.48 15.8 4.48 16.8C4.48 17.8 4.63 18.6667 4.93 19.4C5.23667 20.1333 5.69333 20.7033 6.3 21.11C6.90667 21.5167 7.66667 21.7267 8.58 21.74C9.2 21.7533 9.76 21.6467 10.26 21.42C10.7667 21.1933 11.1933 20.8367 11.54 20.35C11.8867 19.8633 12.1333 19.24 12.28 18.48H10V16.38H15.18C15.1933 16.4667 15.2033 16.62 15.21 16.84C15.2167 17.06 15.22 17.1867 15.22 17.22C15.22 18.6 14.94 19.8233 14.38 20.89C13.82 21.9567 13.03 22.7933 12.01 23.4C10.99 24 9.78667 24.3 8.4 24.3ZM17.1242 24V9.6H19.8842L26.1442 19.2V9.6H28.9042V24H26.1442L19.8842 14.4V24H17.1242Z" fill="black"/>
</svg>
